<svg xmlns="http://www.w3.org/2000/svg" width="20" height="20" viewBox="0 0 20 20" fill="none">
  <path d="M12.8747 3.15033C12.8414 3.35866 12.8247 3.567 12.8247 3.77533C12.8247 5.65033 14.3414 7.16617 16.2081 7.16617C16.4164 7.16617 16.6164 7.142 16.8247 7.10867V13.8328C16.8247 16.6587 15.1581 18.3337 12.3247 18.3337H6.16722C3.33305 18.3337 1.66638 16.6587 1.66638 13.8328V7.667C1.66638 4.83367 3.33305 3.15033 6.16722 3.15033H12.8747ZM13.0422 8.217C12.8164 8.192 12.5922 8.292 12.458 8.47533L10.4422 11.0837L8.13305 9.267C7.99138 9.15867 7.82472 9.11617 7.65805 9.13367C7.49222 9.15867 7.34222 9.2495 7.24138 9.38283L4.77555 12.592L4.72472 12.667C4.58305 12.9328 4.64972 13.2745 4.89972 13.4587C5.01638 13.5337 5.14138 13.5837 5.28305 13.5837C5.47555 13.592 5.65805 13.4912 5.77472 13.3337L7.86638 10.6412L10.2414 12.4253L10.3164 12.4745C10.583 12.6162 10.9164 12.5503 11.108 12.2995L13.5164 9.192L13.4831 9.20867C13.6164 9.02533 13.6414 8.792 13.5497 8.58367C13.4589 8.37533 13.258 8.23367 13.0422 8.217ZM16.3248 1.66675C17.4331 1.66675 18.3331 2.56675 18.3331 3.67508C18.3331 4.78342 17.4331 5.68342 16.3248 5.68342C15.2165 5.68342 14.3165 4.78342 14.3165 3.67508C14.3165 2.56675 15.2165 1.66675 16.3248 1.66675Z" fill="currentColor"/>
</svg>